<svg fill="none" height="93" viewBox="0 0 83 93" width="83" xmlns="http://www.w3.org/2000/svg">
<path
        d="M21.5702 64.6192C31.8585 82.5937 34.9164 81.1768 38.5113 79.1191C42.1063 77.0615 44.8768 75.1423 34.5885 57.1678C24.3003 39.1932 1.81098 11.9806 0.509153 12.7257C-0.792678 13.4708 11.282 46.6446 21.5702 64.6192Z"
        fill="#4C720F" />
    <path
        d="M61.4503 64.6192C51.162 82.5937 48.1041 81.1768 44.5092 79.1191C40.9143 77.0615 38.1437 75.1423 48.432 57.1678C58.7202 39.1932 81.2095 11.9806 82.5114 12.7257C83.8132 13.4708 71.7385 46.6446 61.4503 64.6192Z"
        fill="#4C720F" />
    <path
        d="M57.8536 57.4901C52.5792 77.5179 49.2583 76.9425 45.2528 75.8876C41.2472 74.8327 38.0738 73.6978 43.3482 53.67C48.6227 33.6422 63.2848 1.52805 64.7354 1.91006C66.1859 2.29207 63.1281 37.4623 57.8536 57.4901Z"
        fill="#81B132" />
    <path
        d="M28.1344 56.4901C33.4089 76.5179 36.7297 75.9425 40.7353 74.8876C44.7408 73.8327 47.9143 72.6978 42.6398 52.67C37.3653 32.6422 22.7032 0.528046 21.2527 0.910058C19.8021 1.29207 22.8599 36.4623 28.1344 56.4901Z"
        fill="#81B132" />
    <path
        d="M51 55.5C51 76.2107 47.6421 76.5 43.5 76.5C39.3579 76.5 36 76.2107 36 55.5C36 34.7893 42 0 43.5 0C45 0 51 34.7893 51 55.5Z"
        fill="#4C720F" />
    <path clip-rule="evenodd" d="M42 53H12L24 93H42H60L72 53H42Z" fill="#122021"
        fill-rule="evenodd" />
    <rect fill="#122021" height="10" width="64" x="10" y="50" />
    <rect fill="#274042" height="2" width="47" x="20" y="59" />
</svg>
