<svg fill="none" height="222" viewBox="0 0 273 222" width="273" xmlns="http://www.w3.org/2000/svg">
    <rect fill="#85673A" height="5" width="254" x="10" y="217" />
    <path d="M68 101C68 62.8924 98.8924 32 137 32C175.108 32 206 62.8924 206 101V170H68V101Z"
        fill="#E1F6FF" stroke="white" stroke-width="4" />
    <rect fill="white" height="4" width="139" x="67" y="112" />
    <rect fill="white" height="4" transform="rotate(-90 135 172)" width="142" x="135" y="172" />
    <path clip-rule="evenodd" d="M253.991 217C254.546 217 255 216.555 255 216C255 184.52 227.689 159 194 159C160.311 159 133 184.52 133 216C133 216.555 133.454 217 134.009 217H253.991Z"
        fill="#1B1B1B"
        fill-rule="evenodd" />
    <circle cx="146.5" cy="174.5" fill="#1B1B1B" r="26.5" />
    <path d="M125 143.5L134.5 155.5L123 167.5L125 143.5Z" fill="#1B1B1B" />
    <path d="M157.654 141.169L161.932 156.4L142 159.471L157.654 141.169Z" fill="#1B1B1B" />
    <path d="M133 181L126 180" stroke="#AEAEAE" stroke-linecap="square" stroke-width="2" />
    <path d="M143 181L150 180" stroke="#AEAEAE" stroke-linecap="square" stroke-width="2" />
    <path
        d="M141 186.125C141 185.504 139.657 185 138 185C136.343 185 135 185.504 135 186.125C135 186.746 136.343 188 138 188C139.657 188 141 186.746 141 186.125Z"
        fill="#AEAEAE" />
    <path
        d="M59.5702 188.619C69.8585 206.594 72.9164 205.177 76.5113 203.119C80.1063 201.061 82.8768 199.142 72.5885 181.168C62.3003 163.193 39.811 135.981 38.5092 136.726C37.2073 137.471 49.282 170.645 59.5702 188.619Z"
        fill="#4C720F" />
    <path
        d="M99.4503 188.619C89.162 206.594 86.1041 205.177 82.5092 203.119C78.9143 201.061 76.1437 199.142 86.432 181.168C96.7202 163.193 119.21 135.981 120.511 136.726C121.813 137.471 109.739 170.645 99.4503 188.619Z"
        fill="#4C720F" />
    <path
        d="M95.8536 181.49C90.5792 201.518 87.2583 200.943 83.2528 199.888C79.2472 198.833 76.0738 197.698 81.3482 177.67C86.6227 157.642 101.285 125.528 102.735 125.91C104.186 126.292 101.128 161.462 95.8536 181.49Z"
        fill="#81B132" />
    <path
        d="M66.1344 180.49C71.4089 200.518 74.7297 199.943 78.7353 198.888C82.7408 197.833 85.9143 196.698 80.6398 176.67C75.3653 156.642 60.7032 124.528 59.2527 124.91C57.8021 125.292 60.8599 160.462 66.1344 180.49Z"
        fill="#81B132" />
    <path
        d="M89 179.5C89 200.211 85.6421 200.5 81.5 200.5C77.3579 200.5 74 200.211 74 179.5C74 158.789 80 124 81.5 124C83 124 89 158.789 89 179.5Z"
        fill="#4C720F" />
    <path clip-rule="evenodd" d="M80 177H50L62 217H80H98L110 177H80Z" fill="#122021"
        fill-rule="evenodd" />
    <rect fill="#122021" height="10" width="64" x="48" y="174" />
    <rect fill="#274042" height="2" width="47" x="58" y="183" />
</svg>
