<svg width="191" height="182" viewBox="0 0 191 182" fill="none" xmlns="http://www.w3.org/2000/svg">
<rect x="6.94369" y="104.19" width="28.6687" height="69.5742" rx="9.05624" transform="rotate(-12.6744 6.94369 104.19)" fill="#B0DF04" stroke="black" stroke-width="3"/>
<path d="M47.6957 130.682C49.9826 140.85 43.3315 151.089 32.7196 153.476C22.1077 155.862 11.7134 149.457 9.42658 139.288C7.13971 129.119 13.7909 118.88 24.4027 116.494C35.0146 114.107 45.4089 120.513 47.6957 130.682Z" fill="#F5F4F2" stroke="black" stroke-width="3"/>
<path d="M26.3899 125.33L28.706 135.629L35.1429 134.181" stroke="black" stroke-width="3" stroke-linecap="round" stroke-linejoin="round"/>
<mask id="path-4-inside-1_0_1" fill="white">
<path fill-rule="evenodd" clip-rule="evenodd" d="M26.9895 14.9266L16.3515 16.256C10.5664 16.9789 6.46273 22.2547 7.18565 28.0397L11.2736 60.7523C11.9965 66.5373 17.2722 70.641 23.0573 69.9181L81.3232 62.6369C87.1083 61.914 91.2119 56.6382 90.489 50.8532L86.4011 18.1406C85.6782 12.3556 80.4024 8.2519 74.6174 8.97482L63.9793 10.3042L63.2955 7.36838C62.6826 4.73695 60.1815 2.99325 57.5005 3.32828L31.5524 6.57087C28.8714 6.9059 26.8763 9.21146 26.9298 11.9128L26.9895 14.9266Z"/>
</mask>
<path fill-rule="evenodd" clip-rule="evenodd" d="M26.9895 14.9266L16.3515 16.256C10.5664 16.9789 6.46273 22.2547 7.18565 28.0397L11.2736 60.7523C11.9965 66.5373 17.2722 70.641 23.0573 69.9181L81.3232 62.6369C87.1083 61.914 91.2119 56.6382 90.489 50.8532L86.4011 18.1406C85.6782 12.3556 80.4024 8.2519 74.6174 8.97482L63.9793 10.3042L63.2955 7.36838C62.6826 4.73695 60.1815 2.99325 57.5005 3.32828L31.5524 6.57087C28.8714 6.9059 26.8763 9.21146 26.9298 11.9128L26.9895 14.9266Z" fill="#B0DF04"/>
<path d="M26.9895 14.9266L27.3615 17.9035L30.0424 17.5684L29.9889 14.8672L26.9895 14.9266ZM63.9793 10.3042L61.0575 10.9847L61.6704 13.6161L64.3513 13.281L63.9793 10.3042ZM63.2955 7.36838L60.3737 8.0489L60.3737 8.0489L63.2955 7.36838ZM57.5005 3.32828L57.1285 0.351436L57.5005 3.32828ZM31.5524 6.57087L31.9244 9.54772L31.5524 6.57087ZM26.9298 11.9128L29.9292 11.8534L29.9292 11.8534L26.9298 11.9128ZM16.7235 19.2328L27.3615 17.9035L26.6175 11.9498L15.9795 13.2791L16.7235 19.2328ZM10.1625 27.6677C9.64502 23.5267 12.5825 19.7503 16.7235 19.2328L15.9795 13.2791C8.55033 14.2075 3.28043 20.9826 4.20881 28.4117L10.1625 27.6677ZM14.2504 60.3803L10.1625 27.6677L4.20881 28.4117L8.29671 61.1243L14.2504 60.3803ZM22.6853 66.9412C18.5443 67.4587 14.7679 64.5213 14.2504 60.3803L8.29671 61.1243C9.22508 68.5534 16.0002 73.8233 23.4293 72.8949L22.6853 66.9412ZM80.9512 59.6601L22.6853 66.9412L23.4293 72.8949L81.6952 65.6138L80.9512 59.6601ZM87.5122 51.2252C88.0296 55.3662 85.0922 59.1426 80.9512 59.6601L81.6952 65.6138C89.1243 64.6854 94.3942 57.9103 93.4659 50.4812L87.5122 51.2252ZM83.4243 18.5126L87.5122 51.2252L93.4659 50.4812L89.378 17.7686L83.4243 18.5126ZM74.9894 11.9517C79.1304 11.4342 82.9068 14.3716 83.4243 18.5126L89.378 17.7686C88.4496 10.3395 81.6745 5.0696 74.2454 5.99798L74.9894 11.9517ZM64.3513 13.281L74.9894 11.9517L74.2454 5.99798L63.6073 7.32736L64.3513 13.281ZM66.9011 9.62368L66.2173 6.68785L60.3737 8.0489L61.0575 10.9847L66.9011 9.62368ZM66.2173 6.68786C65.2561 2.56077 61.3333 -0.17402 57.1285 0.351436L57.8725 6.30513C59.0297 6.16052 60.1092 6.91313 60.3737 8.0489L66.2173 6.68786ZM57.1285 0.351436L31.1804 3.59402L31.9244 9.54772L57.8725 6.30513L57.1285 0.351436ZM31.1804 3.59402C26.9755 4.11948 23.8464 7.73548 23.9304 11.9722L29.9292 11.8534C29.9061 10.6874 30.7672 9.69232 31.9244 9.54772L31.1804 3.59402ZM23.9304 11.9722L23.9901 14.986L29.9889 14.8672L29.9292 11.8534L23.9304 11.9722Z" fill="black" mask="url(#path-4-inside-1_0_1)"/>
<path d="M66.3901 11.6889C66.0286 8.79639 68.0805 6.15851 70.973 5.79705L72.7638 5.57326C75.6564 5.2118 78.2942 7.26363 78.6557 10.1562L78.7676 11.0516L66.502 12.5843L66.3901 11.6889Z" fill="black"/>
<circle cx="48.8372" cy="39.4466" r="18.0265" transform="rotate(-7.123 48.8372 39.4466)" fill="#F5F4F2"/>
<circle cx="48.8372" cy="39.4466" r="16.5265" transform="rotate(-7.123 48.8372 39.4466)" fill="#F5F4F2" stroke="black" stroke-width="3"/>
<path d="M101.059 61.8055C101.922 57.5189 106.096 54.7433 110.383 55.6059L187.998 71.2258C189.427 71.5133 190.352 72.9047 190.065 74.3336L168.978 179.115C168.691 180.544 167.299 181.469 165.87 181.181L88.2546 165.562C83.968 164.699 81.1923 160.525 82.055 156.238L101.059 61.8055Z" fill="#B0DF04"/>
<path d="M102.53 62.1014C103.229 58.627 106.612 56.3772 110.087 57.0764L187.702 72.6963C188.319 72.8204 188.718 73.421 188.594 74.0377L167.508 178.819C167.384 179.436 166.783 179.835 166.166 179.711L88.5505 164.091C85.0761 163.392 82.8263 160.008 83.5255 156.534L102.53 62.1014Z" stroke="black" stroke-width="3"/>
<path d="M103.52 59.6088C103.88 57.8227 105.619 56.6662 107.405 57.0257L109.345 57.4162L87.9983 163.491L86.0579 163.1C84.2718 162.741 83.1153 161.002 83.4747 159.216L103.52 59.6088Z" fill="black" stroke="black" stroke-width="3.95859"/>
<rect x="121.361" y="82.2272" width="47.1421" height="26.0297" rx="3.77812" transform="rotate(11.3785 121.361 82.2272)" fill="#F5F4F2" stroke="black" stroke-width="3"/>
<rect x="111.596" y="123.149" width="50.1421" height="3.95859" rx="1.9793" transform="rotate(11.3785 111.596 123.149)" fill="black"/>
<rect x="109.773" y="132.205" width="50.1421" height="3.95859" rx="1.9793" transform="rotate(11.3785 109.773 132.205)" fill="black"/>
<rect x="107.951" y="141.26" width="50.1421" height="3.95859" rx="1.9793" transform="rotate(11.3785 107.951 141.26)" fill="black"/>
</svg>

