<svg fill="none" height="222" viewBox="0 0 273 222" width="273" xmlns="http://www.w3.org/2000/svg">
    <rect fill="#414141" height="68.5443" rx="5" stroke="#2D2D2D" stroke-width="6"
        transform="rotate(-12.6744 51.5623 125.588)" width="16.9197" x="51.5623"
        y="125.588" />
    <path
        d="M85.5654 153.069C87.728 162.685 81.4429 172.454 71.2863 174.738C61.1297 177.022 51.2675 170.885 49.1049 161.268C46.9423 151.652 53.2274 141.884 63.384 139.6C73.5406 137.315 83.4028 143.453 85.5654 153.069Z"
        fill="white" stroke="#2D2D2D" stroke-width="6" />
    <path d="M65.1049 147.251L67.4839 157.83L74.0955 156.343" stroke="#2D2D2D" stroke-linecap="round"
        stroke-linejoin="round" stroke-width="4" />
    <path
        d="M133.042 59.4656C133.369 57.8414 134.951 56.7896 136.575 57.1165L226.798 75.2734C228.422 75.6003 229.474 77.1821 229.147 78.8063L205.859 194.526C205.532 196.15 203.95 197.202 202.326 196.875L112.103 178.718C110.479 178.391 109.427 176.81 109.754 175.185L133.042 59.4656Z"
        fill="#414141" stroke="#2D2D2D" stroke-width="6" />
    <path
        d="M133.042 59.4656C133.369 57.8414 134.951 56.7896 136.575 57.1165L145.778 58.9685L121.306 180.57L112.103 178.718C110.479 178.391 109.427 176.81 109.754 175.185L133.042 59.4656Z"
        fill="white" stroke="#2D2D2D" stroke-width="6" />
    <rect fill="white" height="16.1749" rx="4" stroke="#2D2D2D" stroke-width="6"
        transform="rotate(11.3785 157.191 90)" width="49.0543" x="157.191" y="90" />
    <rect fill="black" height="4.58963" rx="2" transform="rotate(11.3785 143.131 134)" width="58.1354"
        x="143.131" y="134" />
    <rect fill="black" height="4.58963" rx="2" transform="rotate(11.3785 141.018 144.499)" width="58.1354"
        x="141.018" y="144.499" />
    <rect fill="black" height="4.58963" rx="2" transform="rotate(11.3785 138.906 154.998)" width="58.1354"
        x="138.906" y="154.998" />
</svg>
